HIERARCHY
ROOT pelvis
{
  OFFSET 0 100 0
  CHANNELS 6 Xposition Yposition Zposition Zrotation Xrotation Yrotation
  JOINT pelvis_right_femur
  {
    OFFSET -10.78128 -3.44521 -0.5502486
    CHANNELS 3 Zrotation Xrotation Yrotation
    JOINT right_femur_tibia
    {
      OFFSET -0.8047443 -44.0398 -0.1307829
      CHANNELS 3 Zrotation Xrotation Yrotation
      JOINT right_tibia_foot
      {
        OFFSET 3.006224 -47.83518 -5
        CHANNELS 3 Zrotation Xrotation Yrotation
        End Site
        {
          OFFSET 0 -5 15
        }
      }
    }
  }
  JOINT pelvis_left_femur
  {
    OFFSET 10.78128 -3.44521 -0.5502486
    CHANNELS 3 Zrotation Xrotation Yrotation
    JOINT left_femur_tibia
    {
      OFFSET 0.8047443 -44.0398 -0.1307829
      CHANNELS 3 Zrotation Xrotation Yrotation
      JOINT left_tibia_foot
      {
        OFFSET -4.370144 -48.10324 -4.275266
        CHANNELS 3 Zrotation Xrotation Yrotation
        End Site
        {
          OFFSET 0 -5 15
        }
      }
    }
  }
  JOINT pelvis_spine1
  {
    OFFSET 0 6.468898 -3.129235
    CHANNELS 3 Zrotation Xrotation Yrotation
    JOINT spine1
    {
      OFFSET 0 23.15396 4.99043
      CHANNELS 3 Zrotation Xrotation Yrotation
      JOINT spine2
      {
        OFFSET 0 20.79997 -5.064912
        CHANNELS 3 Zrotation Xrotation Yrotation
        JOINT neck
        {
          OFFSET 0 14.38658 9.616178
          CHANNELS 3 Zrotation Xrotation Yrotation
          End Site
          {
            OFFSET 0 20 0
          }
        }
      }
      JOINT right_manubrium
      {
        OFFSET -5.722621 16.35077 3.967754
        CHANNELS 3 Zrotation Xrotation Yrotation
        JOINT right_clavicle
        {
          OFFSET -13.16364 1.694482 -4.693211
          CHANNELS 3 Zrotation Xrotation Yrotation
          JOINT right_humerus
          {
            OFFSET -28.5034 -0.3100689 -2.792744
            CHANNELS 3 Zrotation Xrotation Yrotation
            JOINT right_radius
            {
              OFFSET -25.15693 0.02248979 -1.271978
              CHANNELS 3 Zrotation Xrotation Yrotation
              End Site
              {
                OFFSET -15 0 0
              }
            }
          }
        }
      }
      JOINT left_manubrium
      {
        OFFSET 5.722621 16.35077 3.967754
        CHANNELS 3 Zrotation Xrotation Yrotation
        JOINT left_clavicle
        {
          OFFSET 13.16364 1.694482 -4.693211
          CHANNELS 3 Zrotation Xrotation Yrotation
          JOINT left_humerus
          {
            OFFSET 29.39168 -1.063119 -2.237045
            CHANNELS 3 Zrotation Xrotation Yrotation
            JOINT left_radius
            {
              OFFSET 24.59957 -0.9528479 0.9047498
              CHANNELS 3 Zrotation Xrotation Yrotation
              End Site
              {
                OFFSET 15 -0 -0
              }
            }
          }
        }
      }
    }
  }
}
MOTION
Frames: 13
Frame Time: 0.0416666666667
0 103.5113 0 0.3703975 -0.4504848 0.08402349 3.858795 -14.09661 7.003995 -0 32.44631 -0 -5.286862 -14.94756 -2.653047 -6.236621 7.248462 -20.28319 -0 7.192101 -0 7.075088 -16.95934 24.99135 -3.538079 -5.011291 4.598186 3.198452 10.51557 -8.564845 1.101092 21.97068 6.038246 2.351321 -24.49046 8.844745 6.539758 -20.02416 12.42101 83.85351 31.69377 -18.66714 -0 0 17.17729 -10.84912 10.22847 5.070363 7.575283 -21.07123 0.1194408 -94.65141 20.74229 21.83783 0 0 -8.978975 13.76879 19.82343 -4.035315
0.3024565 103.1015 2.061507 0.06438496 0.07226606 0.1449646 4.564981 -17.05561 7.300891 -0 31.63838 -0 -5.266469 -13.85711 -2.591843 -6.151386 8.163245 -20.21354 -0 7.466836 -0 6.880261 -17.9954 24.88087 -3.403535 -4.500392 4.501438 3.249058 10.32442 -8.626917 1.10947 21.62171 6.406172 2.713443 -24.69665 9.032249 6.614641 -19.60022 12.31064 83.98244 32.43068 -19.06572 -0 0 16.84363 -10.23358 10.16378 4.747605 7.92457 -21.21889 0.2867081 -94.41346 21.06921 21.3873 0 0 -10.33671 13.83686 19.37349 -3.848408
0.5699833 102.5894 4.130186 -0.1729268 0.3535514 0.193907 5.172364 -19.54689 7.764291 -0 30.95293 -0 -5.298783 -13.20246 -2.9721 -6.063831 9.381581 -20.44414 -0 6.849763 -0 5.678923 -19.68012 24.58239 -3.344498 -3.703351 4.261053 3.253038 9.700023 -8.538466 1.157735 21.41844 6.714927 3.015721 -24.7609 9.180385 6.502401 -19.13781 11.96904 84.21388 33.18774 -19.30813 -0 0 16.66084 -9.431724 9.693006 4.577288 8.010514 -20.9125 0.404595 -94.65383 22.9963 21.52962 0 0 -11.71883 11.32463 19.13294 -0.6920963
0.8190901 102.0357 6.2422 -0.3787334 0.7679829 0.2490599 5.68895 -21.96669 8.085656 -0 30.2845 -0 -5.305655 -12.52096 -3.059808 -5.98822 10.336 -20.54706 -0 6.65049 -0 5.255457 -20.68313 24.32201 -3.303809 -3.194979 4.091337 3.310656 9.369454 -8.542363 1.188762 21.19161 6.97799 3.285277 -24.92721 9.314867 6.580618 -18.79877 11.80469 84.31864 33.92108 -19.56166 -0 0 16.39701 -8.857359 9.540405 4.463587 8.046989 -20.84152 0.3922724 -94.56577 24.06865 21.34868 0 0 -13.03629 10.17035 18.72579 0.8806535
1.05988 101.4556 8.416278 -0.5689795 1.315278 0.3221591 6.221955 -24.55773 8.442951 -0 29.49412 -0 -5.275857 -11.85473 -3.052543 -5.93597 11.27249 -20.62526 -0 6.511066 -0 5.234036 -21.46279 24.12007 -3.294205 -2.782977 3.966539 3.415423 9.152028 -8.615708 1.207371 20.90968 7.230366 3.534911 -25.20207 9.463015 6.743638 -18.5318 11.71503 84.43669 34.84029 -19.88216 -0 0 16.06365 -8.27207 9.484295 4.334649 8.034698 -20.87653 0.3359488 -94.23085 24.8052 20.99444 0 0 -14.58545 9.537286 18.15124 1.860749
1.303994 100.8558 10.70613 -0.7610957 1.960788 0.4237081 6.786946 -27.14789 8.763618 -0 28.38907 -0 -5.223636 -11.10536 -2.913367 -5.899479 12.06369 -20.54755 -0 6.569371 -0 5.566552 -21.9928 23.96357 -3.279631 -2.477112 3.911713 3.559848 9.086877 -8.755615 1.211191 20.5651 7.457814 3.737607 -25.59295 9.632698 6.89615 -18.35436 11.70159 84.62678 35.77061 -20.26703 -0 0 15.64721 -7.763571 9.519765 4.173351 8.064642 -21.06312 0.3076036 -93.61847 24.89545 20.41401 0 0 -16.21018 9.769124 17.42122 1.802607
1.559052 100.2256 13.18196 -0.9602867 2.624994 0.5636214 7.358621 -29.64591 8.972663 -0 26.90529 -0 -5.187358 -10.18618 -2.677598 -5.868587 12.74613 -20.27668 -0 6.817637 -0 6.003505 -22.38334 23.75222 -3.236255 -2.21541 3.891662 3.717233 9.111202 -8.9159 1.207964 20.19359 7.663292 3.893465 -26.05044 9.818621 6.943915 -18.23221 11.7156 84.943 36.55666 -20.69578 -0 0 15.12384 -7.376844 9.582334 4.020729 8.142485 -21.35223 0.2977621 -92.8135 24.50671 19.65852 0 0 -17.88436 10.54371 16.55333 1.074159
1.828574 99.54585 15.92945 -1.164691 3.200221 0.7505318 7.859549 -31.82482 8.933574 -0 25.04396 -0 -5.22176 -9.028494 -2.353458 -5.828015 13.30604 -19.75095 -0 7.349464 -0 6.316037 -22.65447 23.36637 -3.131962 -1.987295 3.875523 3.854692 9.197947 -9.057521 1.19897 19.84966 7.83634 3.992292 -26.50565 9.998276 6.801686 -18.14096 11.72753 85.41793 36.96221 -21.148 -0 0 14.4725 -7.221324 9.645343 3.923397 8.277789 -21.72572 0.2869108 -91.90733 23.71252 18.76883 0 0 -19.47943 11.67935 15.61454 -0.1384188
2.111209 98.79932 19.03458 -1.369844 3.607314 0.991089 8.219379 -33.52809 8.556888 -0 22.8719 -0 -5.377279 -7.628795 -1.967524 -5.760566 13.77724 -18.95809 -0 8.243775 -0 6.300317 -22.82317 22.69751 -2.945539 -1.792207 3.830518 3.946144 9.314465 -9.158088 1.181469 19.57964 7.97072 4.032869 -26.89593 10.14267 6.431327 -18.05397 11.71388 86.06649 36.85031 -21.62632 -0 0 13.68365 -7.360499 9.691633 3.914323 8.448779 -22.16317 0.2407559 -90.99146 22.68305 17.80279 0 0 -20.93083 12.90537 14.68725 -1.534039
2.401809 97.98375 22.57237 -1.573428 3.805389 1.287911 8.406906 -34.63202 7.828637 -0 20.51692 -0 -5.691783 -6.05055 -1.549174 -5.650228 14.18385 -17.91831 -0 9.613901 -0 5.838976 -22.85445 21.68782 -2.66168 -1.652405 3.740122 3.9752 9.445474 -9.216632 1.149692 19.40957 8.060639 4.018124 -27.17776 10.22424 5.841029 -17.95449 11.66679 86.88403 36.18541 -22.14645 -0 0 12.77141 -7.810506 9.723453 3.997106 8.625488 -22.653 0.1371903 -90.13877 21.56293 16.82236 0 0 -22.18415 14.03293 13.86166 -2.899242
2.693406 97.12261 26.59666 -1.778361 3.797668 1.637479 8.456653 -35.07267 6.841136 -0 18.16441 -0 -6.182996 -4.416674 -1.135415 -5.484718 14.53102 -16.69282 -0 11.59026 -0 4.91771 -22.66638 20.34907 -2.27235 -1.593736 3.606294 3.936841 9.586418 -9.246204 1.099979 19.33938 8.103303 3.957653 -27.33594 10.22613 5.081885 -17.83821 11.58978 87.84689 35.05517 -22.7223 -0 0 11.77951 -8.520149 9.752186 4.14897 8.766373 -23.1753 -0.03209715 -89.40282 20.48202 15.90375 0 0 -23.20651 14.93349 13.2014 -4.073495
2.979642 96.27029 31.13309 -1.992315 3.610928 2.02684 8.455032 -34.81254 5.765225 -0 16.04566 -0 -6.848866 -2.884357 -0.7646454 -5.255971 14.77107 -15.36827 -0 14.33471 -0 3.621782 -22.13125 18.76488 -1.773749 -1.633501 3.451378 3.833305 9.745963 -9.261719 1.033857 19.34986 8.097462 3.8652 -27.37789 10.14503 4.229626 -17.71573 11.49592 88.91176 33.62676 -23.34768 -0 0 10.77959 -9.391566 9.794453 4.332166 8.827008 -23.6961 -0.2621264 -88.82432 19.52862 15.13967 0 0 -23.95398 15.55775 12.72784 -4.972453
3.256918 95.50978 36.17323 -2.22174 3.273924 2.430282 8.501247 -33.82212 4.798321 -0 14.40093 -0 -7.666844 -1.621969 -0.4740748 -4.960651 14.78486 -14.04305 -0 18.02369 -0 2.113412 -21.10666 17.08015 -1.170455 -1.765139 3.316159 3.671039 9.942384 -9.268809 0.9593535 19.41374 8.041923 3.755638 -27.32444 9.989808 3.368144 -17.61171 11.40501 90.01678 32.10608 -23.98529 -0 0 9.862722 -10.3053 9.865566 4.509398 8.764606 -24.16458 -0.5412579 -88.43585 18.75398 14.63622 0 0 -24.36354 15.91117 12.41563 -5.564
